<?xml version="1.0" encoding="UTF-8"?>
<svg id="Layer_1" data-name="Layer 1" xmlns="http://www.w3.org/2000/svg" width="100" height="52.31" viewBox="0 0 100 52.31">
  <defs>
    <style>
      .cls-1 {
        fill: #fff;
      }
    </style>
  </defs>
  <path class="cls-1" d="M100,52.31H0V0H100V52.31Zm-7.73-35.53h-.38c-8.67,0-17.34,0-26.02,0-.22,0-.37-.07-.47-.25-.06-.1-.12-.21-.2-.3-.42-.5-.82-1.02-1.26-1.49-.47-.5-.98-.98-1.5-1.44-.6-.52-1.25-.99-1.92-1.42-.94-.61-1.93-1.13-2.96-1.56-1.27-.53-2.57-.92-3.93-1.18-.92-.17-1.85-.29-2.78-.33-1.43-.06-2.86,0-4.26,.26-.66,.13-1.31,.25-1.96,.43-1,.27-1.96,.62-2.9,1.05-.93,.43-1.83,.92-2.68,1.49-.64,.43-1.24,.89-1.82,1.39-.71,.61-1.37,1.27-1.96,1.99-.33,.4-.63,.81-.94,1.22-.07,.09-.15,.14-.26,.13-.08,0-.16,0-.24,0-8.62,0-17.23,0-25.85,0-.07,0-.15,0-.22,0-.05,0-.1,.01-.21,.03,.11,.11,.19,.19,.27,.26,.17,.15,.33,.3,.5,.45,.56,.51,1.11,1.02,1.66,1.55,.14,.14,.28,.18,.47,.18,7.33,0,14.67,0,22,0,.07,0,.15,0,.22,0,.05,0,.1,.02,.17,.03-.04,.1-.07,.18-.11,.26-.33,.71-.58,1.45-.79,2.2-.11,.39-.1,.39-.51,.39-5.98,0-11.96,0-17.93,0-.05,0-.1,.02-.15,.02,0,.02-.02,.04-.03,.05,.04,.03,.09,.05,.12,.08,.76,.71,1.52,1.42,2.28,2.13,.13,.12,.26,.16,.44,.16,4.98,0,9.95,0,14.93,0h.31c-.03,.51-.06,.98-.08,1.45-.01,.47,.09,.94,.05,1.44-.12,0-.21,0-.31,0-2.61,0-5.21,0-7.82,0-1.29,0-2.58,0-3.87,0-.09,0-.18,0-.32,.02,.07,.08,.09,.13,.13,.16,.67,.62,1.34,1.24,2,1.86,.42,.39,.41,.39,.99,.39,.02,0,.05,0,.07,0,3.1,0,6.2,0,9.29,0,.26,0,.25,0,.32,.26,.12,.43,.23,.85,.38,1.27,.14,.4,.31,.79,.47,1.19,.02,.05,.03,.1,.05,.18-.31,0-.6,0-.89,0-.3,0-.6,0-.9,0-.29,0-.58,0-.87,0-.29,0-.58,0-.87,0-.3,0-.6,0-.9,0-.29,0-.58,0-.87,0s-.58,0-.87,0c-.3,0-.6,0-.9,0-.29,0-.57-.02-.91,.02,.09,.09,.15,.16,.21,.21,.35,.33,.69,.65,1.04,.97,.38,.36,.78,.7,1.15,1.07,.15,.15,.31,.19,.52,.19,2.07,0,4.15,0,6.22,0,.19,0,.32,.04,.41,.22,.11,.19,.25,.37,.39,.55,.49,.62,.99,1.23,1.56,1.78,.4,.38,.79,.76,1.21,1.11,.59,.5,1.22,.95,1.87,1.37,.84,.54,1.72,1.01,2.64,1.41,1.12,.5,2.28,.88,3.48,1.15,1.14,.26,2.3,.43,3.47,.48,1.61,.08,3.21-.04,4.79-.35,1.24-.25,2.44-.6,3.61-1.07,.75-.31,1.48-.66,2.19-1.06,.66-.37,1.3-.77,1.91-1.23,.56-.43,1.09-.88,1.61-1.34,.59-.52,1.12-1.09,1.6-1.7,.28-.35,.55-.71,.81-1.08,.12-.17,.26-.24,.48-.24,2.05,0,4.1,0,6.15,0,.07,0,.15,.01,.22,0,.07-.01,.16-.03,.21-.08,.24-.21,.46-.42,.69-.64,.55-.51,1.1-1.02,1.65-1.53,.06-.05,.1-.11,.16-.17,0-.02-.01-.03-.02-.05h-7.93c.05-.14,.07-.25,.11-.35,.15-.4,.33-.79,.47-1.19,.13-.37,.23-.75,.33-1.14,.06-.23,.07-.23,.31-.23,.8,0,1.6,0,2.4,0,2.42,0,4.84,0,7.26,0,.16,0,.29-.02,.42-.14,.68-.64,1.37-1.27,2.05-1.91,.11-.11,.22-.22,.37-.37-.13,0-.22-.01-.31-.01-3.91,0-7.83,0-11.74,0-.09,0-.18-.02-.29-.03,.02-.34,.04-.65,.05-.97,0-.31,0-.63,0-.94,0-.31-.07-.62-.05-.96,.12,0,.21,0,.29,0,2.28,0,4.57,0,6.85,0,2.7,0,5.4,0,8.11,0,.15,0,.27-.02,.39-.13,.38-.37,.78-.72,1.17-1.08,.37-.34,.73-.68,1.09-1.02,.05-.05,.09-.1,.17-.2h-.29c-5.96,0-11.92,0-17.88,0-.06,0-.13,0-.19,0-.1,0-.15-.05-.18-.13-.05-.15-.1-.31-.14-.46-.17-.61-.38-1.2-.63-1.77-.07-.16-.13-.32-.21-.53,.15,0,.26,0,.37,0,7.33,0,14.67,0,22,0,.06,0,.13,.01,.19,0,.07-.02,.16-.04,.21-.09,.13-.1,.24-.22,.36-.33,.55-.52,1.11-1.03,1.66-1.55,.16-.15,.3-.31,.49-.51Z"/>
  <path d="M92.27,16.78c-.19,.2-.33,.36-.49,.51-.55,.52-1.11,1.03-1.66,1.55-.12,.11-.23,.23-.36,.33-.06,.05-.14,.07-.21,.09-.06,.01-.13,0-.19,0-7.33,0-14.67,0-22,0-.11,0-.22,0-.37,0,.08,.2,.14,.37,.21,.53,.26,.57,.47,1.16,.63,1.77,.04,.16,.09,.31,.14,.46,.03,.09,.08,.13,.18,.13,.06,0,.13,0,.19,0,5.96,0,11.92,0,17.88,0h.29c-.08,.1-.12,.15-.17,.2-.36,.34-.73,.68-1.09,1.02-.39,.36-.79,.71-1.17,1.08-.12,.12-.24,.13-.39,.13-2.7,0-5.4,0-8.11,0-2.28,0-4.57,0-6.85,0-.09,0-.17,0-.29,0-.02,.34,.06,.65,.05,.96,0,.31,0,.63,0,.94,0,.31-.03,.63-.05,.97,.11,.01,.2,.03,.29,.03,3.91,0,7.83,0,11.74,0,.09,0,.18,0,.31,.01-.15,.15-.25,.27-.37,.37-.68,.64-1.37,1.27-2.05,1.91-.13,.12-.26,.14-.42,.14-2.42,0-4.84,0-7.26,0-.8,0-1.6,0-2.4,0-.25,0-.25,0-.31,.23-.1,.38-.2,.76-.33,1.14-.14,.4-.31,.79-.47,1.19-.04,.1-.07,.21-.11,.35h7.93s.01,.03,.02,.05c-.05,.06-.1,.11-.16,.17-.55,.51-1.1,1.02-1.65,1.53-.23,.21-.46,.43-.69,.64-.05,.05-.14,.07-.21,.08-.07,.01-.14,0-.22,0-2.05,0-4.1,0-6.15,0-.22,0-.36,.06-.48,.24-.26,.37-.53,.73-.81,1.08-.49,.61-1.02,1.19-1.6,1.7-.52,.46-1.06,.92-1.61,1.34-.6,.46-1.24,.86-1.91,1.23-.71,.4-1.44,.75-2.19,1.06-1.17,.47-2.37,.83-3.61,1.07-1.58,.31-3.18,.43-4.79,.35-1.17-.06-2.33-.22-3.47-.48-1.2-.28-2.36-.66-3.48-1.15-.91-.4-1.8-.87-2.64-1.41-.65-.42-1.28-.87-1.87-1.37-.42-.35-.81-.74-1.21-1.11-.57-.55-1.07-1.16-1.56-1.78-.14-.18-.28-.36-.39-.55-.1-.17-.23-.22-.41-.22-2.07,0-4.15,0-6.22,0-.2,0-.36-.04-.52-.19-.37-.37-.77-.71-1.15-1.07-.35-.32-.7-.65-1.04-.97-.06-.06-.12-.12-.21-.21,.34-.05,.62-.02,.91-.02,.3,0,.6,0,.9,0,.29,0,.58,0,.87,0s.58,0,.87,0c.3,0,.6,0,.9,0,.29,0,.58,0,.87,0,.29,0,.58,0,.87,0,.3,0,.6,0,.9,0,.29,0,.58,0,.89,0-.02-.08-.03-.13-.05-.18-.16-.4-.33-.79-.47-1.19-.14-.42-.26-.85-.38-1.27-.07-.25-.06-.26-.32-.26-3.1,0-6.2,0-9.29,0-.02,0-.05,0-.07,0-.57,0-.57,0-.99-.39-.66-.62-1.33-1.24-2-1.86-.04-.04-.07-.08-.13-.16,.13,0,.22-.02,.32-.02,1.29,0,2.58,0,3.87,0,2.61,0,5.21,0,7.82,0,.09,0,.19,0,.31,0,.04-.5-.06-.97-.05-1.44,.01-.47,.05-.95,.08-1.45h-.31c-4.98,0-9.95,0-14.93,0-.17,0-.31-.04-.44-.16-.76-.71-1.52-1.42-2.28-2.13-.04-.03-.08-.05-.12-.08,0-.02,.02-.04,.03-.05,.05,0,.1-.02,.15-.02,5.98,0,11.96,0,17.93,0,.41,0,.4,0,.51-.39,.21-.75,.46-1.49,.79-2.2,.04-.08,.07-.16,.11-.26-.07-.01-.12-.03-.17-.03-.07,0-.15,0-.22,0-7.33,0-14.67,0-22,0-.19,0-.33-.04-.47-.18-.55-.52-1.1-1.04-1.66-1.55-.17-.15-.33-.3-.5-.45-.08-.07-.16-.15-.27-.26,.1-.01,.16-.02,.21-.03,.07,0,.15,0,.22,0,8.62,0,17.23,0,25.85,0,.08,0,.16,0,.24,0,.12,0,.19-.03,.26-.13,.31-.41,.62-.82,.94-1.22,.59-.72,1.26-1.38,1.96-1.99,.58-.5,1.19-.97,1.82-1.39,.85-.57,1.75-1.06,2.68-1.49,.94-.43,1.91-.79,2.9-1.05,.64-.17,1.3-.3,1.96-.43,1.41-.27,2.83-.32,4.26-.26,.94,.04,1.86,.15,2.78,.33,1.35,.25,2.66,.65,3.93,1.18,1.03,.43,2.02,.96,2.96,1.56,.67,.43,1.32,.9,1.92,1.42,.52,.46,1.02,.94,1.5,1.44,.45,.47,.85,.99,1.26,1.49,.08,.09,.14,.2,.2,.3,.11,.18,.25,.25,.47,.25,8.67,0,17.34,0,26.02,0h.38Zm-42.1,24.27c.42-.03,1.12-.08,1.82-.14,.87-.08,1.72-.27,2.56-.5,.7-.19,1.39-.42,2.05-.73,.6-.28,1.2-.56,1.77-.88,.69-.38,1.35-.82,1.95-1.33,.51-.43,1.02-.86,1.49-1.33,.58-.57,1.09-1.21,1.56-1.87,.59-.84,1.08-1.73,1.5-2.67,.28-.63,.5-1.29,.67-1.96,.21-.85,.37-1.72,.43-2.6,.06-.82,.05-1.65-.05-2.46-.12-1.05-.34-2.08-.69-3.08-.27-.76-.6-1.49-.98-2.2-.33-.6-.7-1.18-1.11-1.73-.48-.64-1-1.24-1.58-1.8-.48-.47-.98-.91-1.52-1.31-.83-.62-1.72-1.17-2.65-1.62-.8-.39-1.62-.72-2.47-.97-1.06-.32-2.14-.54-3.24-.65-1.36-.13-2.72-.12-4.08,.07-.69,.09-1.36,.23-2.04,.4-.66,.17-1.31,.39-1.95,.64-.88,.34-1.72,.77-2.52,1.26-.81,.5-1.58,1.06-2.29,1.69-.74,.66-1.42,1.38-2.02,2.17-.69,.9-1.26,1.87-1.72,2.9-.49,1.08-.82,2.2-1.02,3.37-.22,1.24-.25,2.5-.12,3.76,.05,.45,.14,.89,.21,1.34,.12,.76,.34,1.49,.61,2.21,.31,.84,.71,1.64,1.17,2.4,.37,.6,.77,1.17,1.21,1.71,.57,.69,1.19,1.33,1.87,1.91,.66,.57,1.36,1.08,2.1,1.54,.88,.54,1.8,.99,2.77,1.35,1,.38,2.02,.65,3.07,.84,.98,.18,1.97,.24,3.24,.27Z"/>
  <path class="cls-1" d="M50.16,41.05c-1.27-.03-2.26-.1-3.24-.27-1.05-.19-2.07-.46-3.07-.84-.97-.36-1.89-.81-2.77-1.35-.74-.46-1.44-.97-2.1-1.54-.68-.58-1.3-1.22-1.87-1.91-.45-.54-.85-1.11-1.21-1.71-.47-.77-.86-1.57-1.17-2.4-.27-.72-.5-1.45-.61-2.21-.07-.45-.16-.89-.21-1.34-.13-1.26-.1-2.52,.12-3.76,.2-1.16,.54-2.29,1.02-3.37,.47-1.03,1.04-2,1.72-2.9,.6-.79,1.28-1.52,2.02-2.17,.71-.63,1.47-1.2,2.29-1.69,.81-.49,1.64-.92,2.52-1.26,.64-.25,1.29-.46,1.95-.64,.67-.17,1.35-.31,2.04-.4,1.36-.18,2.72-.2,4.08-.07,1.1,.11,2.18,.33,3.24,.65,.85,.26,1.67,.59,2.47,.97,.94,.46,1.82,1,2.65,1.62,.53,.4,1.04,.84,1.52,1.31,.57,.56,1.1,1.16,1.58,1.8,.41,.55,.78,1.12,1.11,1.73,.38,.71,.71,1.44,.98,2.2,.35,1,.57,2.03,.69,3.08,.09,.82,.1,1.64,.05,2.46-.06,.88-.21,1.74-.43,2.6-.17,.67-.39,1.33-.67,1.96-.41,.94-.9,1.83-1.5,2.67-.47,.67-.98,1.3-1.56,1.87-.47,.47-.99,.9-1.49,1.33-.6,.51-1.26,.95-1.95,1.33-.58,.32-1.18,.6-1.77,.88-.66,.31-1.35,.53-2.05,.73-.84,.23-1.69,.42-2.56,.5-.7,.06-1.4,.11-1.82,.14Zm-11.34-16.97h.07c.03,.06,.08,.12,.1,.2,.22,.73,.44,1.46,.66,2.2,.23,.76,.46,1.53,.68,2.29,.1,.35,.22,.69,.31,1.04,.04,.13,.11,.16,.23,.16,.48,0,.95,0,1.43,0,.14,0,.2-.05,.24-.18,.21-.7,.42-1.4,.63-2.1,.22-.72,.44-1.45,.66-2.17,.13-.42,.25-.85,.38-1.27,.01-.03,.04-.06,.05-.1,.02,0,.03,0,.05,0,0,.09,.02,.18,.02,.27,0,1.73,0,3.47,0,5.2,0,.1,0,.2,.01,.32h1.67c.06-.21,.05-7.53-.01-7.74-.08,0-.16,0-.25,0-.69,0-1.37,0-2.06,0-.09,0-.18,0-.27,0-.12,0-.19,.04-.22,.17-.08,.28-.18,.55-.26,.83-.17,.55-.34,1.11-.51,1.66-.21,.68-.43,1.37-.64,2.05-.05,.16-.11,.33-.17,.49-.07-.06-.09-.11-.11-.17-.07-.21-.14-.43-.21-.64-.25-.77-.49-1.55-.74-2.32-.19-.61-.38-1.21-.57-1.82-.07-.22-.09-.24-.32-.24-.77,0-1.53,0-2.3,0-.08,0-.15,.01-.22,.02-.06,.28-.05,7.53,.01,7.71h1.67v-5.86Zm18.33-1.83v.3c0,1.49,0,2.98,0,4.47,0,.08,.03,.17-.06,.26-.23-.31-.46-.61-.68-.91-.41-.56-.81-1.12-1.22-1.68-.56-.77-1.12-1.53-1.68-2.3-.09-.13-.19-.2-.36-.19-.45,0-.9,0-1.35,0-.24,0-.25,0-.25,.27,0,2.41,0,4.82,0,7.23,0,.08,.01,.15,.02,.24h1.7c0-.12,.02-.22,.02-.32,0-1.45,0-2.9,0-4.35,0-.08,0-.16,.02-.29,.08,.07,.13,.11,.16,.15,.14,.18,.27,.36,.4,.55,.29,.4,.59,.81,.88,1.21,.43,.58,.86,1.16,1.29,1.75,.3,.4,.6,.8,.89,1.2,.08,.1,.16,.14,.28,.14,.48,0,.97,0,1.45,0,.06,0,.12-.01,.18-.02,.06-.25,.05-7.52,0-7.71-.25-.05-1.47-.04-1.69,.02Zm-9.25,7.69h1.82c.05-.25,.05-7.52-.01-7.74-.18,0-.37,0-.56,0-.35,0-.71,0-1.06,0-.18,0-.19,.02-.2,.2,0,.02,0,.05,0,.07,0,2.4,0,4.8,0,7.2,0,.09,.01,.17,.02,.27Zm14.75-7.71c-.26-.06-1.62-.04-1.79,.02-.05,.29-.03,7.5,.02,7.68,.26,.05,1.63,.04,1.79-.02,.04-.33,.03-7.5-.02-7.68Z"/>
  <path d="M38.83,24.08v5.86h-1.67c-.06-.19-.07-7.43-.01-7.71,.07,0,.15-.02,.22-.02,.77,0,1.53,0,2.3,0,.23,0,.26,.02,.32,.24,.19,.61,.38,1.21,.57,1.82,.24,.78,.49,1.55,.74,2.32,.07,.21,.14,.43,.21,.64,.02,.06,.05,.11,.11,.17,.06-.16,.12-.33,.17-.49,.22-.68,.43-1.37,.64-2.05,.17-.55,.34-1.11,.51-1.66,.09-.28,.18-.55,.26-.83,.04-.13,.1-.17,.22-.17,.09,0,.18,0,.27,0,.69,0,1.37,0,2.06,0,.09,0,.17,0,.25,0,.06,.21,.07,7.52,.01,7.74h-1.67c0-.12-.01-.22-.01-.32,0-1.73,0-3.47,0-5.2,0-.09-.01-.18-.02-.27-.02,0-.03,0-.05,0-.02,.03-.04,.06-.05,.1-.13,.42-.25,.85-.38,1.27-.22,.72-.44,1.45-.66,2.17-.21,.7-.42,1.4-.63,2.1-.04,.13-.1,.18-.24,.18-.48,0-.95,0-1.43,0-.12,0-.19-.03-.23-.16-.1-.35-.21-.69-.31-1.04-.23-.76-.46-1.53-.68-2.29-.22-.73-.44-1.47-.66-2.2-.02-.07-.07-.14-.1-.21h-.07Z"/>
  <path d="M57.15,22.25c.22-.06,1.43-.07,1.69-.02,.06,.19,.06,7.46,0,7.71-.06,0-.12,.02-.18,.02-.48,0-.97,0-1.45,0-.12,0-.21-.03-.28-.14-.29-.4-.6-.8-.89-1.2-.43-.58-.86-1.16-1.29-1.75-.3-.4-.59-.81-.88-1.21-.13-.18-.26-.37-.4-.55-.03-.04-.08-.07-.16-.15,0,.13-.02,.21-.02,.29,0,1.45,0,2.9,0,4.35,0,.1,0,.2-.02,.32h-1.7c0-.09-.02-.16-.02-.24,0-2.41,0-4.82,0-7.23,0-.26,0-.26,.25-.27,.45,0,.9,0,1.35,0,.17,0,.27,.06,.36,.19,.56,.77,1.12,1.53,1.68,2.3,.41,.56,.81,1.12,1.22,1.68,.22,.3,.45,.6,.68,.91,.09-.09,.06-.18,.06-.26,0-1.49,0-2.98,0-4.47v-.3Z"/>
  <path d="M47.9,29.94c0-.1-.02-.18-.02-.27,0-2.4,0-4.8,0-7.2,0-.02,0-.05,0-.07,0-.17,.02-.19,.2-.2,.35,0,.71,0,1.06,0,.19,0,.38,0,.56,0,.06,.22,.07,7.49,.01,7.74h-1.82Z"/>
  <path d="M62.65,22.23c.04,.18,.06,7.35,.02,7.68-.16,.06-1.54,.07-1.79,.02-.05-.18-.06-7.38-.02-7.68,.17-.06,1.53-.08,1.79-.02Z"/>
</svg>