<?xml version="1.0" encoding="UTF-8"?>
<svg id="Layer_1" data-name="Layer 1" xmlns="http://www.w3.org/2000/svg" width="240.14" height="125.61" viewBox="0 0 240.14 125.61">
  <defs>
    <style>
      .cls-1 {
        fill: #fff;
      }
    </style>
  </defs>
  <path class="cls-1" d="M240.14,125.61H0V0H240.14V125.61Zm-18.57-85.31h-.9c-20.83,0-41.65,0-62.48,.01-.53,0-.88-.17-1.14-.61-.15-.25-.3-.5-.48-.72-1-1.2-1.97-2.44-3.04-3.58-1.14-1.21-2.34-2.36-3.59-3.45-1.44-1.26-2.99-2.38-4.61-3.42-2.27-1.46-4.63-2.72-7.12-3.76-3.04-1.27-6.18-2.22-9.43-2.83-2.21-.42-4.44-.69-6.68-.79-3.43-.14-6.86-.01-10.24,.63-1.58,.3-3.15,.61-4.7,1.02-2.39,.64-4.72,1.49-6.97,2.53-2.24,1.03-4.39,2.21-6.43,3.58-1.53,1.03-2.98,2.14-4.38,3.35-1.7,1.47-3.29,3.05-4.71,4.79-.78,.96-1.52,1.95-2.27,2.94-.17,.23-.36,.33-.64,.3-.19-.02-.39,0-.58,0-20.69,0-41.38,0-62.07,0-.17,0-.35,0-.52,0-.12,0-.25,.03-.5,.06,.27,.26,.45,.45,.64,.63,.4,.37,.8,.72,1.2,1.09,1.33,1.24,2.68,2.46,3.99,3.72,.34,.33,.68,.43,1.13,.43,17.61,0,35.22,0,52.83,0,.17,0,.35,0,.52,0,.12,0,.24,.04,.42,.08-.1,.25-.17,.44-.26,.63-.79,1.7-1.38,3.48-1.9,5.29-.27,.93-.24,.94-1.22,.94-14.35,0-28.71,0-43.06,0-.12,0-.24,.04-.35,.06-.02,.04-.04,.09-.07,.13,.1,.06,.21,.11,.3,.19,1.83,1.7,3.65,3.4,5.47,5.11,.31,.29,.63,.37,1.05,.37,11.95,0,23.91,0,35.86,0h.75c-.07,1.22-.16,2.35-.19,3.48-.03,1.13,.21,2.26,.12,3.46-.28,0-.51,0-.74,0-6.26,0-12.51,0-18.77,0-3.1,0-6.2,0-9.3,0-.22,0-.44,.02-.76,.04,.16,.2,.23,.31,.32,.39,1.6,1.49,3.21,2.97,4.8,4.46,1,.94,.99,.95,2.38,.95,.06,0,.12,0,.17,0,7.44,0,14.88,0,22.32,0,.62,0,.6,.02,.77,.62,.28,1.02,.56,2.05,.9,3.06,.33,.97,.75,1.91,1.12,2.86,.05,.12,.06,.25,.11,.44-.75,0-1.44,0-2.14,0-.72,0-1.43,0-2.15,0-.7,0-1.39,0-2.09,0-.7,0-1.39,0-2.09,0-.72,0-1.43,0-2.15,0-.7,0-1.39,0-2.09,0s-1.39,0-2.09,0c-.72,0-1.43-.01-2.15,0-.68,.01-1.37-.06-2.18,.06,.22,.23,.36,.38,.51,.52,.83,.78,1.67,1.56,2.5,2.34,.92,.85,1.87,1.68,2.76,2.57,.37,.37,.75,.46,1.24,.46,4.98-.01,9.96,0,14.94-.02,.45,0,.76,.1,.99,.52,.27,.47,.61,.9,.94,1.32,1.17,1.49,2.37,2.96,3.74,4.27,.95,.91,1.89,1.83,2.89,2.68,1.42,1.2,2.92,2.29,4.49,3.3,2.02,1.31,4.14,2.43,6.33,3.4,2.69,1.19,5.49,2.1,8.36,2.77,2.74,.63,5.52,1.03,8.33,1.16,3.86,.19,7.7-.09,11.5-.85,2.97-.59,5.86-1.44,8.66-2.58,1.81-.74,3.56-1.59,5.27-2.55,1.59-.89,3.13-1.85,4.58-2.96,1.33-1.02,2.62-2.12,3.88-3.23,1.41-1.24,2.68-2.63,3.85-4.09,.68-.84,1.32-1.72,1.95-2.6,.3-.41,.63-.57,1.15-.57,4.92,.02,9.84,.01,14.76,.01,.17,0,.35,.02,.52,0,.18-.03,.39-.08,.52-.19,.57-.5,1.11-1.02,1.67-1.53,1.32-1.22,2.64-2.45,3.95-3.67,.13-.12,.25-.27,.38-.4-.02-.04-.03-.08-.05-.12h-19.05c.11-.35,.18-.6,.27-.84,.37-.95,.78-1.89,1.12-2.86,.31-.89,.56-1.81,.8-2.73,.14-.55,.16-.55,.75-.55,1.92,0,3.84,0,5.75,0,5.81,0,11.62,0,17.43,0,.38,0,.71-.04,1.01-.33,1.63-1.54,3.28-3.06,4.92-4.59,.28-.26,.53-.54,.88-.9-.31-.01-.53-.03-.75-.03-9.4,0-18.79,0-28.19,0-.22,0-.44-.04-.69-.06,.04-.82,.1-1.57,.12-2.32,.02-.75,0-1.51,0-2.27,0-.74-.17-1.48-.13-2.3,.28,0,.49,0,.7,0,5.48,0,10.96,0,16.45,0,6.49,0,12.98,0,19.47,0,.36,0,.65-.04,.94-.32,.92-.89,1.87-1.73,2.81-2.6,.88-.81,1.76-1.63,2.63-2.46,.12-.11,.21-.25,.41-.48h-.7c-14.32,0-28.63,0-42.95,0-.15,0-.31,0-.46,0-.23,0-.36-.11-.43-.32-.11-.37-.24-.74-.34-1.11-.4-1.46-.9-2.87-1.52-4.25-.17-.38-.31-.78-.5-1.26,.37,0,.63,0,.9,0,17.61,0,35.22,0,52.83,0,.15,0,.32,.03,.46,0,.18-.04,.37-.1,.51-.21,.3-.24,.57-.52,.85-.78,1.33-1.24,2.67-2.47,3.99-3.71,.38-.35,.72-.74,1.17-1.22Z"/>
  <path d="M221.57,40.3c-.45,.47-.79,.86-1.17,1.22-1.32,1.24-2.66,2.48-3.99,3.71-.28,.26-.55,.54-.85,.78-.14,.11-.33,.17-.51,.21-.15,.03-.31,0-.46,0-17.61,0-35.22,0-52.83,0-.27,0-.53,0-.9,0,.19,.49,.33,.88,.5,1.26,.62,1.38,1.12,2.8,1.52,4.25,.1,.37,.23,.74,.34,1.11,.07,.21,.2,.32,.43,.32,.15,0,.31,0,.46,0,14.32,0,28.63,0,42.95,0h.7c-.2,.23-.29,.37-.41,.48-.87,.82-1.75,1.64-2.63,2.46-.94,.87-1.89,1.71-2.81,2.6-.29,.28-.59,.32-.94,.32-6.49,0-12.98,0-19.47,0-5.48,0-10.96,0-16.45,0-.21,0-.42,0-.7,0-.04,.81,.13,1.55,.13,2.3,0,.76,.02,1.51,0,2.27-.02,.75-.07,1.5-.12,2.32,.25,.02,.47,.06,.69,.06,9.4,0,18.79,0,28.19,0,.22,0,.44,.02,.75,.03-.35,.36-.6,.64-.88,.9-1.64,1.53-3.29,3.05-4.92,4.59-.3,.28-.63,.33-1.01,.33-5.81,0-11.62,0-17.43,0-1.92,0-3.84,0-5.75,0-.59,0-.61,0-.75,.55-.24,.92-.49,1.83-.8,2.73-.33,.97-.75,1.9-1.12,2.86-.09,.24-.16,.5-.27,.84h19.05s.03,.08,.05,.12c-.13,.13-.24,.27-.38,.4-1.32,1.23-2.64,2.45-3.95,3.67-.55,.51-1.1,1.04-1.67,1.53-.13,.11-.34,.16-.52,.19-.17,.03-.35,0-.52,0-4.92,0-9.84,0-14.76-.01-.52,0-.86,.16-1.15,.57-.63,.88-1.27,1.75-1.95,2.6-1.17,1.47-2.45,2.85-3.85,4.09-1.26,1.11-2.54,2.21-3.88,3.23-1.44,1.1-2.99,2.06-4.58,2.96-1.7,.96-3.46,1.81-5.27,2.55-2.8,1.14-5.69,1.99-8.66,2.58-3.8,.76-7.63,1.03-11.5,.85-2.81-.13-5.59-.53-8.33-1.16-2.87-.66-5.66-1.58-8.36-2.77-2.2-.97-4.31-2.09-6.33-3.4-1.56-1.01-3.07-2.1-4.49-3.3-1-.85-1.94-1.77-2.89-2.68-1.38-1.31-2.57-2.78-3.74-4.27-.33-.43-.67-.86-.94-1.32-.24-.41-.54-.52-.99-.52-4.98,.01-9.96,0-14.94,.02-.49,0-.87-.09-1.24-.46-.89-.89-1.84-1.71-2.76-2.57-.84-.78-1.67-1.56-2.5-2.34-.15-.14-.29-.29-.51-.52,.81-.11,1.5-.04,2.18-.06,.72-.01,1.43,0,2.15,0,.7,0,1.39,0,2.09,0s1.39,0,2.09,0c.72,0,1.43,0,2.15,0,.7,0,1.39,0,2.09,0,.7,0,1.39,0,2.09,0,.72,0,1.43,0,2.15,0,.69,0,1.39,0,2.14,0-.05-.19-.07-.32-.11-.44-.37-.95-.79-1.89-1.12-2.86-.34-1-.62-2.03-.9-3.06-.17-.6-.15-.62-.77-.62-7.44,0-14.88,0-22.32,0-.06,0-.12,0-.17,0-1.38,0-1.37,0-2.38-.95-1.6-1.49-3.2-2.97-4.8-4.46-.09-.09-.16-.2-.32-.39,.32-.02,.54-.04,.76-.04,3.1,0,6.2,0,9.3,0,6.26,0,12.51,0,18.77,0,.23,0,.46,0,.74,0,.09-1.2-.15-2.33-.12-3.46,.04-1.14,.12-2.27,.19-3.48h-.75c-11.95,0-23.91,0-35.86,0-.41,0-.74-.09-1.05-.37-1.82-1.71-3.64-3.41-5.47-5.11-.08-.08-.2-.13-.3-.19,.02-.04,.04-.09,.07-.13,.12-.02,.24-.06,.35-.06,14.35,0,28.71,0,43.06,0,.99,0,.96,0,1.22-.94,.51-1.8,1.1-3.58,1.9-5.29,.09-.19,.16-.39,.26-.63-.17-.03-.3-.07-.42-.08-.17-.01-.35,0-.52,0-17.61,0-35.22,0-52.83,0-.45,0-.79-.1-1.13-.43-1.31-1.26-2.65-2.49-3.99-3.72-.4-.37-.8-.73-1.2-1.09-.19-.18-.38-.37-.64-.63,.25-.03,.37-.06,.5-.06,.17,0,.35,0,.52,0,20.69,0,41.38,0,62.07,0,.19,0,.39-.01,.58,0,.28,.02,.46-.08,.64-.3,.74-.99,1.48-1.98,2.27-2.94,1.43-1.74,3.02-3.32,4.71-4.79,1.39-1.21,2.85-2.32,4.38-3.35,2.04-1.38,4.2-2.55,6.43-3.58,2.25-1.04,4.58-1.89,6.97-2.53,1.55-.41,3.13-.72,4.7-1.02,3.38-.65,6.81-.78,10.24-.63,2.25,.09,4.47,.37,6.68,.79,3.24,.61,6.38,1.56,9.43,2.83,2.48,1.04,4.85,2.3,7.12,3.76,1.61,1.04,3.17,2.16,4.61,3.42,1.25,1.09,2.45,2.25,3.59,3.45,1.07,1.14,2.03,2.38,3.04,3.58,.18,.22,.34,.47,.48,.72,.26,.44,.61,.61,1.14,.61,20.83-.01,41.65-.01,62.48-.01h.9Zm-101.11,58.28c1.01-.08,2.69-.19,4.37-.34,2.09-.19,4.13-.65,6.14-1.2,1.68-.46,3.34-1.01,4.92-1.74,1.44-.67,2.87-1.35,4.26-2.11,1.66-.92,3.24-1.97,4.69-3.2,1.22-1.04,2.45-2.07,3.59-3.2,1.38-1.38,2.61-2.9,3.74-4.5,1.42-2.01,2.6-4.16,3.59-6.41,.67-1.52,1.2-3.1,1.6-4.71,.51-2.05,.88-4.12,1.03-6.23,.14-1.98,.12-3.95-.11-5.92-.29-2.52-.82-5-1.67-7.4-.64-1.83-1.43-3.59-2.36-5.29-.79-1.45-1.68-2.83-2.67-4.14-1.15-1.53-2.41-2.97-3.79-4.31-1.15-1.12-2.36-2.18-3.65-3.14-2-1.5-4.12-2.8-6.37-3.9-1.92-.93-3.89-1.72-5.93-2.34-2.54-.77-5.14-1.29-7.79-1.55-3.27-.32-6.54-.29-9.8,.16-1.65,.22-3.28,.55-4.89,.97-1.59,.41-3.15,.93-4.68,1.53-2.11,.83-4.12,1.85-6.06,3.03-1.95,1.19-3.78,2.55-5.49,4.06-1.79,1.58-3.4,3.32-4.85,5.22-1.65,2.16-3.02,4.49-4.14,6.96-1.17,2.58-1.97,5.29-2.46,8.08-.52,2.99-.59,6.01-.29,9.03,.11,1.07,.33,2.14,.49,3.21,.28,1.82,.83,3.58,1.47,5.3,.76,2.01,1.7,3.93,2.82,5.77,.88,1.44,1.84,2.82,2.91,4.12,1.37,1.66,2.86,3.2,4.5,4.6,1.59,1.36,3.27,2.59,5.05,3.69,2.11,1.3,4.33,2.38,6.65,3.25,2.4,.9,4.85,1.56,7.37,2.02,2.35,.42,4.72,.59,7.78,.66Z"/>
  <path class="cls-1" d="M120.46,98.58c-3.06-.07-5.43-.23-7.78-.66-2.52-.45-4.98-1.11-7.37-2.02-2.32-.88-4.54-1.96-6.65-3.25-1.78-1.09-3.46-2.33-5.05-3.69-1.64-1.4-3.13-2.94-4.5-4.6-1.07-1.3-2.03-2.68-2.91-4.12-1.12-1.84-2.06-3.76-2.82-5.77-.65-1.72-1.19-3.48-1.47-5.3-.17-1.07-.38-2.13-.49-3.21-.31-3.02-.23-6.04,.29-9.03,.49-2.79,1.29-5.5,2.46-8.08,1.12-2.47,2.5-4.8,4.14-6.96,1.45-1.9,3.06-3.64,4.85-5.22,1.71-1.51,3.54-2.87,5.49-4.06,1.94-1.18,3.95-2.2,6.06-3.03,1.53-.6,3.09-1.11,4.68-1.53,1.61-.42,3.24-.74,4.89-.97,3.26-.44,6.52-.48,9.8-.16,2.65,.26,5.24,.78,7.79,1.55,2.04,.61,4.01,1.41,5.93,2.34,2.25,1.09,4.37,2.4,6.37,3.9,1.28,.96,2.49,2.02,3.65,3.14,1.37,1.34,2.64,2.78,3.79,4.31,.99,1.32,1.88,2.7,2.67,4.14,.92,1.7,1.71,3.46,2.36,5.29,.84,2.4,1.38,4.88,1.67,7.4,.22,1.96,.25,3.94,.11,5.92-.15,2.11-.51,4.19-1.03,6.23-.4,1.61-.93,3.19-1.6,4.71-.99,2.25-2.17,4.39-3.59,6.41-1.13,1.6-2.36,3.12-3.74,4.5-1.13,1.13-2.37,2.16-3.59,3.2-1.45,1.23-3.03,2.28-4.69,3.2-1.39,.77-2.82,1.44-4.26,2.11-1.58,.74-3.24,1.28-4.92,1.74-2.02,.55-4.06,1.01-6.14,1.2-1.68,.15-3.36,.26-4.37,.34Zm-27.22-40.76l.16-.04c.08,.17,.18,.33,.24,.51,.53,1.76,1.05,3.52,1.58,5.28,.55,1.83,1.1,3.66,1.64,5.5,.25,.83,.52,1.66,.75,2.5,.09,.31,.26,.38,.55,.38,1.14,0,2.29-.01,3.43,0,.34,0,.48-.13,.57-.43,.5-1.69,1.01-3.37,1.52-5.05,.52-1.74,1.05-3.48,1.57-5.22,.31-1.02,.6-2.04,.91-3.05,.02-.08,.08-.15,.13-.23,.04,0,.08,0,.11,.01,.01,.22,.04,.44,.04,.66,0,4.16,0,8.33,0,12.49,0,.25,.02,.49,.04,.78h4.02c.13-.51,.12-18.08-.03-18.58-.19,0-.39,0-.6,0-1.65,0-3.29,0-4.94,0-.21,0-.43,0-.64,0-.3-.01-.45,.1-.53,.4-.19,.67-.43,1.33-.63,1.99-.41,1.33-.82,2.66-1.23,3.99-.51,1.64-1.03,3.28-1.55,4.92-.13,.4-.27,.79-.41,1.18-.16-.14-.23-.27-.27-.41-.17-.51-.34-1.03-.5-1.54-.59-1.86-1.19-3.72-1.77-5.58-.46-1.46-.91-2.92-1.36-4.37-.17-.53-.22-.57-.78-.57-1.84,0-3.68,0-5.52,0-.19,0-.37,.03-.54,.05-.14,.68-.11,18.08,.03,18.53h4.02v-14.08Zm44.01-4.38v.71c0,3.58,0,7.16,0,10.74,0,.2,.07,.42-.14,.63-.56-.74-1.1-1.46-1.63-2.19-.98-1.34-1.95-2.69-2.93-4.04-1.34-1.84-2.7-3.68-4.04-5.52-.22-.31-.46-.47-.86-.46-1.08,.02-2.17,0-3.25,0-.59,0-.61,.02-.61,.64,0,5.79,0,11.58,0,17.36,0,.19,.03,.37,.05,.58h4.08c.01-.29,.04-.53,.04-.78,0-3.48,0-6.97,0-10.45,0-.2,.02-.39,.04-.7,.2,.18,.31,.25,.39,.35,.32,.43,.64,.87,.96,1.31,.71,.97,1.41,1.94,2.12,2.9,1.03,1.4,2.07,2.8,3.11,4.19,.71,.96,1.44,1.91,2.14,2.88,.18,.25,.38,.34,.68,.33,1.16-.01,2.32,0,3.49,0,.15,0,.3-.03,.44-.04,.14-.59,.12-18.06,0-18.51-.61-.11-3.53-.09-4.05,.05Zm-22.22,18.46h4.37c.13-.6,.11-18.07-.03-18.58-.44,0-.9,0-1.36,0-.85,0-1.7,0-2.55,0-.42,0-.46,.06-.48,.47,0,.06,0,.12,0,.17,0,5.76,0,11.53,0,17.29,0,.21,.03,.41,.05,.64Zm35.41-18.51c-.63-.14-3.9-.1-4.3,.04-.11,.71-.08,18.01,.04,18.43,.62,.12,3.92,.09,4.3-.04,.1-.79,.07-18.01-.04-18.44Z"/>
  <path d="M93.24,57.82v14.08h-4.02c-.14-.45-.17-17.85-.03-18.53,.17-.02,.35-.05,.54-.05,1.84,0,3.68,0,5.52,0,.56,0,.61,.04,.78,.57,.46,1.46,.9,2.92,1.36,4.37,.59,1.86,1.18,3.72,1.77,5.58,.16,.52,.33,1.03,.5,1.54,.05,.14,.11,.27,.27,.41,.14-.39,.28-.78,.41-1.18,.52-1.64,1.03-3.28,1.55-4.92,.41-1.33,.82-2.66,1.23-3.99,.21-.66,.44-1.32,.63-1.99,.08-.3,.24-.42,.53-.4,.21,0,.43,0,.64,0,1.65,0,3.29,0,4.94,0,.21,0,.42,0,.6,0,.15,.5,.16,18.07,.03,18.58h-4.02c-.01-.28-.04-.53-.04-.78,0-4.16,0-8.33,0-12.49,0-.22-.03-.44-.04-.66-.04,0-.08,0-.11-.01-.04,.08-.1,.15-.13,.23-.31,1.02-.61,2.04-.91,3.05-.52,1.74-1.05,3.48-1.57,5.22-.51,1.68-1.02,3.37-1.52,5.05-.09,.3-.24,.44-.57,.43-1.14-.02-2.29-.01-3.43,0-.29,0-.46-.07-.55-.38-.23-.84-.5-1.66-.75-2.5-.55-1.83-1.1-3.66-1.64-5.5-.53-1.76-1.05-3.52-1.58-5.28-.05-.18-.16-.34-.24-.51l-.16,.04Z"/>
  <path d="M137.25,53.44c.52-.15,3.44-.17,4.05-.05,.13,.45,.15,17.92,0,18.51-.14,.01-.29,.04-.44,.04-1.16,0-2.32,0-3.49,0-.3,0-.5-.08-.68-.33-.7-.97-1.43-1.92-2.14-2.88-1.04-1.4-2.08-2.79-3.11-4.19-.71-.96-1.41-1.93-2.12-2.9-.32-.44-.63-.88-.96-1.31-.08-.1-.19-.18-.39-.35-.02,.3-.04,.5-.04,.7,0,3.48,0,6.97,0,10.45,0,.25-.02,.49-.04,.78h-4.08c-.02-.21-.05-.39-.05-.58,0-5.79,0-11.58,0-17.36,0-.62,.02-.64,.61-.64,1.08,0,2.17,.01,3.25,0,.4,0,.64,.15,.86,.46,1.34,1.85,2.69,3.68,4.04,5.52,.98,1.34,1.95,2.69,2.93,4.04,.53,.73,1.08,1.45,1.63,2.19,.22-.21,.14-.43,.14-.63,0-3.58,0-7.16,0-10.74v-.71Z"/>
  <path d="M115.03,71.9c-.02-.23-.05-.44-.05-.64,0-5.76,0-11.53,0-17.29,0-.06,0-.12,0-.17,.02-.41,.06-.46,.48-.47,.85-.01,1.7,0,2.55,0,.46,0,.92,0,1.36,0,.14,.52,.16,17.99,.03,18.58h-4.37Z"/>
  <path d="M150.45,53.4c.11,.42,.14,17.65,.04,18.44-.39,.13-3.69,.16-4.3,.04-.11-.42-.15-17.73-.04-18.43,.4-.15,3.67-.18,4.3-.04Z"/>
</svg>