<?xml version="1.0" encoding="UTF-8"?>
<svg id="Layer_1" data-name="Layer 1" xmlns="http://www.w3.org/2000/svg" width="480.29" height="251.22" viewBox="0 0 480.29 251.22">
  <defs>
    <style>
      .cls-1 {
        fill: #fff;
      }
    </style>
  </defs>
  <path class="cls-1" d="M480.29,251.22H0V0H480.29V251.22Zm-37.21-170.48c-.03-.09-.06-.18-.08-.28-.49,0-.98,0-1.47,0-37.7,0-75.41,0-113.11,0-4.07,0-8.14-.03-12.21,.02-.89,.01-1.47-.3-1.93-1-.38-.58-.73-1.2-1.17-1.73-1.98-2.38-3.88-4.82-6-7.06-2.28-2.41-4.68-4.72-7.18-6.91-2.88-2.52-5.99-4.77-9.21-6.85-3.94-2.54-8.04-4.8-12.32-6.69-6.64-2.94-13.51-5.12-20.66-6.46-5.04-.95-10.11-1.55-15.22-1.69-4.57-.12-9.14,.05-13.69,.59-4.89,.58-9.72,1.48-14.46,2.79-5.53,1.52-10.88,3.53-16.04,6.07-3.79,1.86-7.45,3.94-10.95,6.3-3.6,2.43-7,5.1-10.21,8.03-2.86,2.61-5.57,5.37-8.01,8.38-1.46,1.8-2.86,3.65-4.25,5.51-.36,.48-.72,.78-1.34,.7-.34-.04-.7,0-1.05,0-29.8,0-59.6,0-89.4,0-11.78,0-23.56,0-35.33,0-.45,0-.89,.03-1.34,.04-.03,.08-.06,.16-.09,.25,.58,.54,1.16,1.08,1.75,1.62,3.31,3.08,6.64,6.15,9.92,9.26,.56,.54,1.13,.7,1.86,.7,26.93-.01,53.86,0,80.79,0,8.52,0,17.05,0,25.57,0,.44,0,.88,.06,1.46,.1-.23,.56-.4,.94-.56,1.33-.78,1.93-1.62,3.85-2.32,5.81-.67,1.89-1.24,3.83-1.77,5.76-.18,.65-.46,.9-1.11,.89-1.28-.03-2.56,0-3.84,0-27.59,0-55.18,0-82.77,0-.41,0-.81,0-1.22,0-.03,.09-.07,.19-.1,.28,.54,.53,1.07,1.06,1.62,1.58,3.14,2.92,6.31,5.82,9.43,8.78,.78,.73,1.55,1.1,2.66,1.1,23.83-.03,47.66-.02,71.49-.02,.45,0,.91,0,1.52,0-.14,2.42-.31,4.69-.38,6.96-.07,2.26,.42,4.52,.24,6.93-1.49,0-2.88,0-4.27,0-1.39,0-2.79,0-4.18,0-1.43,0-2.87,0-4.3,0-1.39,0-2.79,0-4.18,0-1.39,0-2.79,0-4.18,0s-2.79,0-4.18,0c-1.39,0-2.79,0-4.18,0-1.43,0-2.87,0-4.3,0-1.39,0-2.79,0-4.18,0-1.39,0-2.79,0-4.18,0-1.39,0-2.79,0-4.18,0-1.43,0-2.87,0-4.3,0-1.39,0-2.79-.01-4.18,0-1.37,.02-2.75-.08-4.34,.1,.35,.39,.53,.63,.74,.83,3.52,3.26,7.07,6.49,10.54,9.79,.74,.7,1.44,.99,2.44,.99,15.46-.02,30.92-.02,46.38-.01,1.11,0,1.12,.05,1.42,1.08,.61,2.15,1.19,4.32,1.91,6.44,.63,1.86,1.44,3.67,2.16,5.5,.09,.24,.13,.49,.23,.92h-38.28c.37,.44,.54,.68,.76,.88,3.63,3.37,7.28,6.72,10.87,10.12,.68,.65,1.36,.87,2.27,.87,9.88-.02,19.76-.02,29.64-.02,.35,0,.72-.06,1.04,.02,.34,.09,.75,.25,.95,.51,1,1.28,1.93,2.61,2.91,3.91,2.28,3.04,4.82,5.86,7.53,8.51,3.38,3.3,7,6.32,10.86,9.05,4.95,3.49,10.2,6.44,15.73,8.89,5.43,2.4,11.04,4.24,16.83,5.58,5.49,1.28,11.04,2.05,16.66,2.33,7.73,.39,15.4-.19,23-1.7,5.94-1.18,11.71-2.87,17.32-5.15,3.73-1.51,7.35-3.27,10.85-5.26,3.16-1.8,6.25-3.73,9.13-5.96,2.6-2.01,5.12-4.13,7.57-6.32,2.74-2.45,5.25-5.14,7.54-8.02,1.37-1.72,2.69-3.49,3.97-5.28,.59-.83,1.26-1.15,2.31-1.14,9.88,.04,19.76,.03,29.64,.03,.31,0,.63,.05,.93-.01,.36-.08,.77-.17,1.03-.4,1.16-1.02,2.28-2.09,3.42-3.14,2.61-2.42,5.22-4.84,7.83-7.26,.27-.25,.52-.53,.78-.79-.03-.09-.06-.18-.09-.26-.41,0-.82,0-1.23,0-4.46,0-8.91,0-13.37,0-7.36,0-14.73,0-22.09,0-.44,0-.88-.05-1.45-.09,.22-.64,.36-1.12,.54-1.57,.75-1.9,1.57-3.78,2.24-5.71,.62-1.79,1.12-3.62,1.6-5.45,.29-1.1,.26-1.11,1.5-1.11,.12,0,.23,0,.35,0,10.69,0,21.39,0,32.08,0,4.73,0,9.45-.02,14.18,0,.75,0,1.34-.18,1.86-.73,.59-.62,1.24-1.17,1.86-1.75,2.04-1.9,4.08-3.79,6.12-5.69,1.15-1.07,2.29-2.16,3.67-3.46-.71-.04-1.15-.08-1.59-.08-18.76,0-37.51,0-56.27,0-.49,0-.97-.06-1.58-.1,.43-4.63,.38-9.13-.04-13.78,.59,0,1.01,0,1.42,0,16,0,32.01,0,48.01,0,7.98,0,15.96,0,23.95,0,.72,0,1.3-.13,1.87-.68,1.89-1.83,3.85-3.58,5.78-5.37,1.59-1.47,3.19-2.93,4.76-4.43,.33-.31,.88-.53,.79-1.24-.46,0-.88,0-1.3,0-28.6,0-57.2,0-85.79,0-.27,0-.54-.01-.81,0-.46,.02-.73-.2-.86-.62-.23-.74-.48-1.47-.69-2.22-.8-2.91-1.81-5.75-3.04-8.5-.34-.76-.61-1.55-.99-2.51,.69-.02,1.17-.04,1.66-.04,28.6,0,57.19,0,85.79,0,6.78,0,13.56-.01,20.34,.01,.83,0,1.47-.17,2.05-.81,.69-.78,1.5-1.45,2.27-2.16,2.95-2.73,5.91-5.46,8.86-8.19,.14-.13,.24-.29,.36-.43Z"/>
  <path d="M443.08,80.74c-.12,.14-.23,.3-.36,.43-2.95,2.73-5.91,5.46-8.86,8.19-.77,.71-1.57,1.38-2.27,2.16-.58,.65-1.22,.82-2.05,.81-6.78-.02-13.56-.01-20.34-.01-28.6,0-57.19,0-85.79,0-.49,0-.98,.02-1.66,.04,.38,.96,.65,1.75,.99,2.51,1.24,2.76,2.24,5.59,3.04,8.5,.21,.75,.45,1.48,.69,2.22,.13,.42,.41,.64,.86,.62,.27-.01,.54,0,.81,0,28.6,0,57.2,0,85.79,0,.42,0,.84,0,1.3,0,.09,.7-.46,.92-.79,1.24-1.57,1.49-3.17,2.96-4.76,4.43-1.93,1.79-3.9,3.54-5.78,5.37-.57,.55-1.15,.68-1.87,.68-7.98-.01-15.96,0-23.95,0-16,0-32.01,0-48.01,0-.42,0-.83,0-1.42,0,.42,4.65,.47,9.15,.04,13.78,.61,.04,1.09,.1,1.58,.1,18.76,0,37.51,0,56.27,0,.44,0,.88,.04,1.59,.08-1.37,1.3-2.51,2.38-3.67,3.46-2.04,1.9-4.08,3.79-6.12,5.69-.62,.58-1.27,1.13-1.86,1.75-.52,.55-1.11,.74-1.86,.73-4.73-.02-9.45,0-14.18,0-10.69,0-21.39,0-32.08,0-.12,0-.23,0-.35,0-1.24,0-1.21,.01-1.5,1.11-.48,1.83-.98,3.67-1.6,5.45-.67,1.93-1.49,3.81-2.24,5.71-.18,.46-.32,.93-.54,1.57,.57,.04,1.01,.09,1.45,.09,7.36,0,14.73,0,22.09,0,4.46,0,8.91,0,13.37,0,.41,0,.82,0,1.23,0,.03,.09,.06,.18,.09,.26-.26,.26-.51,.54-.78,.79-2.61,2.42-5.22,4.84-7.83,7.26-1.13,1.05-2.25,2.12-3.42,3.14-.26,.23-.67,.32-1.03,.4-.3,.06-.62,.01-.93,.01-9.88,0-19.76,.02-29.64-.03-1.05,0-1.72,.31-2.31,1.14-1.28,1.79-2.6,3.56-3.97,5.28-2.3,2.87-4.8,5.57-7.54,8.02-2.45,2.19-4.97,4.31-7.57,6.32-2.88,2.23-5.96,4.15-9.13,5.96-3.5,2-7.11,3.75-10.85,5.26-5.61,2.27-11.38,3.97-17.32,5.15-7.6,1.51-15.27,2.09-23,1.7-5.62-.28-11.17-1.05-16.66-2.33-5.78-1.35-11.4-3.19-16.83-5.58-5.53-2.45-10.79-5.39-15.73-8.89-3.86-2.73-7.48-5.75-10.86-9.05-2.72-2.65-5.26-5.47-7.53-8.51-.97-1.3-1.91-2.63-2.91-3.91-.21-.26-.61-.42-.95-.51-.33-.09-.69-.02-1.04-.02-9.88,0-19.76,0-29.64,.02-.91,0-1.58-.22-2.27-.87-3.59-3.41-7.24-6.75-10.87-10.12-.21-.2-.38-.44-.76-.88h38.28c-.11-.42-.14-.68-.23-.92-.72-1.83-1.52-3.64-2.16-5.5-.72-2.12-1.3-4.29-1.91-6.44-.29-1.04-.31-1.08-1.42-1.08-15.46,0-30.92,0-46.38,.01-1,0-1.7-.29-2.44-.99-3.47-3.31-7.03-6.53-10.54-9.79-.21-.2-.39-.44-.74-.83,1.59-.18,2.96-.08,4.34-.1,1.39-.02,2.79,0,4.18,0,1.43,0,2.87,0,4.3,0,1.39,0,2.79,0,4.18,0,1.39,0,2.79,0,4.18,0,1.39,0,2.79,0,4.18,0,1.43,0,2.87,0,4.3,0,1.39,0,2.79,0,4.18,0,1.39,0,2.79,0,4.18,0s2.79,0,4.18,0c1.39,0,2.79,0,4.18,0,1.43,0,2.87,0,4.3,0,1.39,0,2.79,0,4.18,0,1.39,0,2.77,0,4.27,0,.18-2.41-.31-4.67-.24-6.93,.07-2.27,.24-4.54,.38-6.96-.61,0-1.07,0-1.52,0-23.83,0-47.66,0-71.49,.02-1.11,0-1.88-.36-2.66-1.1-3.12-2.95-6.29-5.85-9.43-8.78-.55-.51-1.08-1.05-1.62-1.58,.03-.09,.07-.19,.1-.28,.41,0,.81,0,1.22,0,27.59,0,55.18,0,82.77,0,1.28,0,2.56-.02,3.84,0,.65,.01,.93-.23,1.11-.89,.53-1.94,1.09-3.87,1.77-5.76,.7-1.96,1.54-3.88,2.32-5.81,.16-.39,.32-.77,.56-1.33-.58-.04-1.02-.1-1.46-.1-8.52,0-17.05,0-25.57,0-26.93,0-53.86,0-80.79,0-.73,0-1.3-.16-1.86-.7-3.28-3.11-6.61-6.18-9.92-9.26-.58-.54-1.16-1.08-1.75-1.62,.03-.08,.06-.16,.09-.25,.45-.01,.89-.04,1.34-.04,11.78,0,23.56,0,35.33,0,29.8,0,59.6,0,89.4,0,.35,0,.7-.03,1.05,0,.62,.07,.98-.23,1.34-.7,1.39-1.85,2.79-3.7,4.25-5.51,2.43-3.01,5.14-5.77,8.01-8.38,3.21-2.93,6.61-5.6,10.21-8.03,3.5-2.36,7.16-4.44,10.95-6.3,5.16-2.53,10.51-4.54,16.04-6.07,4.74-1.31,9.57-2.21,14.46-2.79,4.55-.54,9.11-.72,13.69-.59,5.12,.14,10.19,.74,15.22,1.69,7.15,1.34,14.03,3.52,20.66,6.46,4.28,1.89,8.38,4.15,12.32,6.69,3.22,2.08,6.33,4.33,9.21,6.85,2.5,2.19,4.9,4.5,7.18,6.91,2.12,2.24,4.03,4.69,6,7.06,.44,.53,.79,1.15,1.17,1.73,.46,.69,1.04,1.01,1.93,1,4.07-.05,8.14-.02,12.21-.02,37.7,0,75.41,0,113.11,0,.49,0,.98,0,1.47,0,.03,.09,.06,.18,.08,.28Zm-203.54,116.26c5.67-.11,11.22-.55,16.71-1.69,4.29-.89,8.49-2.05,12.58-3.62,5.51-2.11,10.73-4.77,15.66-8.03,4.47-2.96,8.58-6.35,12.34-10.15,3-3.02,5.69-6.32,8.09-9.84,2.6-3.81,4.8-7.85,6.63-12.07,1.32-3.05,2.39-6.2,3.2-9.43,1.03-4.1,1.75-8.24,2.05-12.47,.27-3.96,.23-7.91-.22-11.83-.57-5.04-1.65-10-3.34-14.8-1.21-3.43-2.67-6.74-4.39-9.96-1.64-3.08-3.51-6.01-5.59-8.81-2.26-3.04-4.77-5.88-7.48-8.55-3.29-3.24-6.85-6.15-10.67-8.74-3.39-2.3-6.97-4.3-10.68-6.05-6.27-2.95-12.82-5.03-19.61-6.3-6.19-1.16-12.45-1.51-18.74-1.27-5.13,.19-10.18,.91-15.17,2.05-4.34,.99-8.57,2.37-12.68,4.09-3.18,1.32-6.29,2.8-9.23,4.6-2.3,1.41-4.6,2.85-6.78,4.44-2.22,1.61-4.36,3.35-6.4,5.18-1.87,1.67-3.58,3.52-5.32,5.33-2.75,2.85-5.06,6.05-7.2,9.36-2.1,3.25-3.93,6.66-5.4,10.24-.85,2.07-1.51,4.22-2.3,6.32-1.1,2.88-1.7,5.89-2.17,8.89-1.28,8.05-1.35,16.11,.36,24.13,.54,2.54,1.1,5.05,1.89,7.53,1.28,3.99,2.91,7.81,4.87,11.51,1.93,3.63,4.2,7.02,6.7,10.28,2.34,3.05,4.93,5.87,7.73,8.48,3.8,3.54,7.93,6.66,12.37,9.37,3.97,2.42,8.11,4.51,12.44,6.18,5.09,1.97,10.34,3.43,15.74,4.36,4.67,.81,9.38,1.13,14.02,1.26Z"/>
  <path class="cls-1" d="M239.54,197.01c-4.64-.12-9.34-.45-14.02-1.26-5.4-.93-10.65-2.39-15.74-4.36-4.33-1.68-8.47-3.76-12.44-6.18-4.44-2.71-8.57-5.83-12.37-9.37-2.8-2.61-5.39-5.43-7.73-8.48-2.5-3.26-4.77-6.65-6.7-10.28-1.96-3.7-3.59-7.52-4.87-11.51-.8-2.48-1.35-5-1.89-7.53-1.72-8.02-1.64-16.09-.36-24.13,.48-3,1.08-6.02,2.17-8.89,.8-2.09,1.46-4.24,2.3-6.32,1.47-3.58,3.3-6.99,5.4-10.24,2.14-3.31,4.46-6.51,7.2-9.36,1.74-1.81,3.46-3.66,5.32-5.33,2.04-1.83,4.18-3.56,6.4-5.18,2.18-1.59,4.48-3.03,6.78-4.44,2.94-1.8,6.05-3.27,9.23-4.6,4.11-1.71,8.34-3.1,12.68-4.09,4.99-1.14,10.05-1.85,15.17-2.05,6.3-.24,12.55,.12,18.74,1.27,6.8,1.27,13.34,3.34,19.61,6.3,3.72,1.75,7.29,3.75,10.68,6.05,3.82,2.59,7.38,5.5,10.67,8.74,2.71,2.67,5.22,5.51,7.48,8.55,2.08,2.79,3.94,5.73,5.59,8.81,1.71,3.21,3.18,6.53,4.39,9.96,1.7,4.8,2.77,9.76,3.34,14.8,.45,3.92,.49,7.88,.22,11.83-.29,4.23-1.02,8.37-2.05,12.47-.81,3.22-1.88,6.38-3.2,9.43-1.83,4.23-4.03,8.27-6.63,12.07-2.41,3.52-5.1,6.82-8.09,9.84-3.76,3.8-7.87,7.19-12.34,10.15-4.93,3.26-10.15,5.92-15.66,8.03-4.09,1.56-8.29,2.73-12.58,3.62-5.49,1.14-11.03,1.58-16.71,1.69Zm-53-81.44c.09-.02,.19-.05,.28-.07,.17,.36,.38,.7,.49,1.08,1.06,3.48,2.09,6.96,3.14,10.44,1.1,3.66,2.19,7.33,3.29,10.99,.49,1.63,.97,3.26,1.5,4.87,.29,.89,.33,.89,1.32,.9,2.17,0,4.34,0,6.51,0,1,0,1.03-.05,1.32-1.06,.69-2.37,1.38-4.75,2.1-7.12,1.29-4.25,2.62-8.49,3.91-12.74,.66-2.18,1.3-4.37,1.95-6.55,.05-.16,.18-.3,.27-.44,.25,.46,.3,.9,.3,1.34,0,8.33,0,16.65,0,24.98,0,.49,.05,.97,.08,1.51h8.05c.27-1.31,.2-36.28-.07-37.1-.13-.03-.27-.08-.42-.08-3.99,0-7.98,0-11.97-.01-.6,0-.87,.26-1.05,.84-.87,2.8-1.81,5.59-2.69,8.39-1.37,4.39-2.7,8.79-4.06,13.18-.27,.86-.58,1.71-.88,2.56-.34-.26-.45-.5-.53-.74-.36-1.1-.71-2.2-1.07-3.31-1.17-3.64-2.34-7.28-3.49-10.93-.92-2.91-1.81-5.83-2.72-8.74-.36-1.16-.44-1.23-1.61-1.23-3.64,0-7.28,0-10.93,0-1.29,0-1.33,.04-1.33,1.28,0,11.58,0,23.16,0,34.74,0,.37,.06,.74,.1,1.25,2.76-.02,5.41,.05,8.19-.05v-28.15Zm87.69,15.35c-.57-.76-1.16-1.51-1.72-2.27-1.39-1.91-2.76-3.83-4.15-5.73-2.03-2.78-4.08-5.54-6.11-8.32-1.81-2.46-3.6-4.93-5.4-7.4-.29-.39-.62-.69-1.14-.69-2.44,0-4.88,0-7.32,0-.52,0-.79,.24-.79,.77,0,.23,0,.46,0,.7,0,11.46,0,22.93,0,34.39,0,.42,.04,.83,.06,1.21,1.15,.3,7.28,.27,8.27-.05v-15.61c0-1.32-.01-2.63,0-3.95,.02-1.29-.08-2.58,.08-4.08,.38,.32,.62,.45,.77,.64,.67,.9,1.32,1.81,1.98,2.72,1.41,1.94,2.82,3.88,4.24,5.8,2,2.71,4.01,5.4,6.02,8.1,1.48,1.98,2.97,3.95,4.42,5.95,.36,.49,.75,.69,1.35,.68,2.36-.03,4.73,0,7.09-.01,.26,0,.53-.06,.77-.09,.26-1.08,.25-36.11,0-37.03-1.4-.3-7.24-.21-8.11,.18v16.09c0,1.32,.02,2.63,0,3.95-.02,1.33,.09,2.67-.29,4.05Zm-35.38,12.84c.28-1.74,.19-36.33-.09-37.17-.16-.02-.35-.07-.54-.07-2.4,0-4.8-.02-7.2,0-.95,0-1.03,.1-1.03,1.1,0,11.69,0,23.38,0,35.07,0,.33,.08,.66,.13,1.07,2.99,.04,5.87,.04,8.73,0Zm62.1,.02c.29-1.76,.19-36.36-.08-37.15-1.37-.22-7.71-.16-8.6,.1v37.04c2.92,.02,5.76,0,8.67,0Z"/>
  <path d="M186.54,115.56v28.15c-2.79,.1-5.44,.03-8.19,.05-.04-.51-.1-.88-.1-1.25,0-11.58,0-23.16,0-34.74,0-1.24,.04-1.28,1.33-1.28,3.64,0,7.28,0,10.93,0,1.17,0,1.25,.07,1.61,1.23,.91,2.91,1.8,5.83,2.72,8.74,1.15,3.65,2.33,7.29,3.49,10.93,.35,1.1,.71,2.21,1.07,3.31,.08,.24,.19,.48,.53,.74,.29-.85,.61-1.7,.88-2.56,1.36-4.39,2.69-8.79,4.06-13.18,.88-2.8,1.82-5.59,2.69-8.39,.18-.58,.45-.84,1.05-.84,3.99,.01,7.98,0,11.97,.01,.15,0,.3,.06,.42,.08,.27,.82,.34,35.78,.07,37.1h-8.05c-.03-.53-.08-1.02-.08-1.51,0-8.33,0-16.65,0-24.98,0-.44-.05-.88-.3-1.34-.09,.15-.22,.28-.27,.44-.66,2.18-1.29,4.37-1.95,6.55-1.3,4.25-2.62,8.49-3.91,12.74-.72,2.37-1.41,4.74-2.1,7.12-.3,1.02-.32,1.06-1.32,1.06-2.17,0-4.34,0-6.51,0-.99,0-1.03,0-1.32-.9-.52-1.62-1.01-3.24-1.5-4.87-1.1-3.66-2.19-7.33-3.29-10.99-1.04-3.48-2.08-6.96-3.14-10.44-.11-.37-.33-.72-.49-1.08-.09,.02-.19,.05-.28,.07Z"/>
  <path d="M274.23,130.91c.38-1.38,.27-2.72,.29-4.05,.02-1.32,0-2.63,0-3.95v-16.09c.88-.38,6.72-.48,8.11-.18,.25,.92,.27,35.95,0,37.03-.24,.03-.51,.09-.77,.09-2.36,0-4.73-.02-7.09,.01-.61,0-1-.19-1.35-.68-1.45-2-2.95-3.97-4.42-5.95-2.01-2.7-4.02-5.4-6.02-8.1-1.42-1.93-2.83-3.87-4.24-5.8-.66-.91-1.31-1.82-1.98-2.72-.15-.2-.38-.33-.77-.64-.16,1.49-.06,2.79-.08,4.08-.02,1.32,0,2.63,0,3.95v15.61c-.99,.32-7.12,.35-8.27,.05-.02-.38-.06-.8-.06-1.21,0-11.46,0-22.93,0-34.39,0-.23,0-.46,0-.7,0-.53,.27-.77,.79-.77,2.44,0,4.88,0,7.32,0,.52,0,.85,.29,1.14,.69,1.8,2.47,3.6,4.94,5.4,7.4,2.03,2.77,4.08,5.54,6.11,8.32,1.39,1.9,2.76,3.82,4.15,5.73,.56,.77,1.15,1.52,1.72,2.27Z"/>
  <path d="M238.85,143.75c-2.85,.04-5.74,.03-8.73,0-.05-.41-.13-.74-.13-1.07,0-11.69,0-23.38,0-35.07,0-1,.08-1.09,1.03-1.1,2.4-.01,4.8,0,7.2,0,.19,0,.37,.05,.54,.07,.28,.84,.38,35.43,.09,37.17Z"/>
  <path d="M300.95,143.77c-2.91,0-5.76,.01-8.67,0v-37.04c.89-.27,7.22-.33,8.6-.1,.27,.79,.37,35.39,.08,37.15Z"/>
</svg>